<svg version="1.1" id="Layer_1" xmlns="http://www.w3.org/2000/svg" xmlns:xlink="http://www.w3.org/1999/xlink" x="0px" y="0px"
	 width="100%" viewBox="0 0 784 768" enable-background="new 0 0 784 768" xml:space="preserve">
<path fill="#000000" opacity="1.000000" stroke="none" 
	d="
M381.531342,1.000000 
	C380.611816,2.640407 378.696075,2.328914 376.891785,2.342596 
	C352.244537,2.529493 328.114990,6.579861 304.139862,11.920244 
	C269.727051,19.585598 237.190079,32.280590 206.240570,48.959881 
	C185.930435,59.905407 166.818451,72.746422 148.748199,87.200531 
	C137.974899,95.817902 127.545425,104.847878 117.863480,114.545776 
	C103.580238,128.852554 90.219971,144.075729 78.275864,160.503250 
	C63.279888,181.128235 49.976364,202.740784 39.188965,225.833267 
	C27.512997,250.827927 18.379738,276.710846 12.172324,303.664276 
	C8.186911,320.969482 5.676022,338.458923 3.487146,356.029449 
	C3.282286,357.673859 3.357822,359.357117 3.356761,361.022369 
	C3.347948,374.852570 3.726979,388.695068 3.275033,402.510498 
	C2.278193,432.982666 7.057681,462.661987 14.648499,492.008667 
	C20.773827,515.689636 29.375174,538.436096 39.721939,560.609619 
	C52.500427,587.994385 68.752907,613.171021 87.263680,636.901001 
	C99.328102,652.367004 112.769661,666.728699 127.233749,679.958191 
	C158.563858,708.613892 193.589630,731.881409 232.213654,749.599670 
	C247.911179,756.800720 264.244904,762.370605 280.666626,767.669678 
	C281.285614,767.869446 281.855591,768.221191 282.724213,768.751038 
	C189.028717,769.000000 95.057426,769.000000 1.043072,769.000000 
	C1.043072,513.106934 1.043072,257.213837 1.043072,1.000000 
	C127.687378,1.000000 254.375031,1.000000 381.531342,1.000000 
z"/>
<path fill="#000000" opacity="1.000000" stroke="none" 
	d="
M503.468658,769.000000 
	C508.968658,765.153870 516.036194,764.223694 522.563843,761.947205 
	C538.111694,756.524841 553.265625,750.173828 567.935120,742.850220 
	C591.134521,731.268250 612.970093,717.414734 633.521118,701.490356 
	C650.940918,687.992126 666.887573,672.899902 681.776733,656.811829 
	C699.222839,637.960938 714.491577,617.334839 727.874695,595.304932 
	C751.127930,557.027893 766.987610,515.887390 776.170532,472.170441 
	C779.504395,456.299103 781.581848,440.202576 782.848755,423.972321 
	C784.329773,404.997650 784.216919,385.993530 783.357788,367.100159 
	C782.206787,341.787262 777.714661,316.830353 771.189270,292.250458 
	C762.102417,258.021729 748.578003,225.720901 730.685242,195.191864 
	C718.490845,174.385361 704.432495,154.985962 688.711487,136.668564 
	C659.523132,102.659393 625.287170,74.961967 586.468140,52.744438 
	C553.682251,33.979870 518.904602,20.241076 482.128754,11.759285 
	C463.899506,7.554983 445.428009,4.668823 426.713654,3.121379 
	C419.950195,2.562121 413.102112,3.243941 406.208252,1.386904 
	C532.294678,1.000000 658.589294,1.000000 784.942017,1.000000 
	C784.942017,256.882965 784.942017,512.765930 784.942017,769.000000 
	C691.312744,769.000000 597.625000,769.000000 503.468658,769.000000 
z"/>
<path fill="#000000" opacity="1.000000" stroke="none" 
	d="
M271.455658,370.455872 
	C263.839966,377.911865 256.474762,385.118317 249.358185,392.081482 
	C250.305191,395.537872 252.516632,396.933044 254.227509,398.648865 
	C277.636353,422.125641 301.024292,445.624237 324.606598,468.925934 
	C327.991425,472.270477 328.243591,474.254211 324.729126,477.659698 
	C313.965546,488.089447 303.428772,498.760834 293.040588,509.565918 
	C289.826233,512.909241 287.991180,511.595520 285.395203,508.986145 
	C258.136566,481.586578 230.796310,454.268158 203.473846,426.932068 
	C193.581146,417.034393 183.762466,407.060089 173.723709,397.312592 
	C170.666031,394.343597 170.458755,392.452515 173.661758,389.266571 
	C211.102661,352.024780 248.439072,314.677429 285.661957,277.217712 
	C289.149292,273.708221 291.247284,273.375305 294.831635,277.130737 
	C305.065704,287.853424 315.628540,298.268005 326.242493,308.618744 
	C329.065857,311.372070 328.990021,313.096313 326.201263,315.850739 
	C307.947601,333.879578 289.852814,352.069244 271.455658,370.455872 
z"/>
<path fill="#000000" opacity="1.000000" stroke="none" 
	d="
M513.529968,368.469788 
	C496.072632,351.025421 478.978546,333.715088 461.574402,316.722321 
	C457.826935,313.063477 458.136871,310.999420 461.691864,307.583191 
	C472.381592,297.310852 482.837616,286.789337 493.180969,276.166504 
	C496.004883,273.266327 497.661591,273.592255 500.381165,276.324829 
	C537.756531,313.879272 575.219177,351.347168 612.747742,388.748657 
	C615.433838,391.425629 615.846252,393.057312 612.909363,395.979767 
	C574.997620,433.704315 537.186890,471.530670 499.446045,509.426239 
	C496.586426,512.297607 494.847046,511.956848 492.189362,509.237244 
	C481.593140,498.394287 470.883484,487.657562 460.010468,477.092896 
	C457.033539,474.200439 457.035767,472.434814 460.007751,469.488525 
	C484.381073,445.325714 508.530884,420.937256 532.939148,396.810089 
	C536.502869,393.287476 536.773010,391.187683 532.948120,387.715668 
	C526.294067,381.675385 520.143738,375.080109 513.529968,368.469788 
z"/>
<path fill="#000000" opacity="1.000000" stroke="none" 
	d="
M403.249573,312.372131 
	C410.955017,287.692139 418.592255,263.407166 426.009277,239.055099 
	C427.241852,235.008194 429.061707,234.193024 432.897675,235.574646 
	C438.528320,237.602692 444.270233,239.366119 450.053162,240.911362 
	C453.920624,241.944778 454.488098,243.776688 453.326324,247.449799 
	C443.592896,278.223969 434.018250,309.048401 424.417450,339.864441 
	C403.035767,408.493988 381.622406,477.113739 360.392303,545.790161 
	C358.983185,550.348450 357.368561,551.667542 352.770325,549.859619 
	C347.366943,547.735168 341.719635,546.196533 336.114105,544.633301 
	C332.424438,543.604248 331.595795,541.901917 332.789795,538.113281 
	C343.591248,503.840210 354.175934,469.498962 364.868622,435.191559 
	C377.592041,394.368805 390.359406,353.559692 403.249573,312.372131 
z"/>
<path fill="#000000" opacity="1.000000" stroke="none" 
	d="
M164.954758,476.941315 
	C164.356079,477.546387 164.006012,477.902985 163.653976,478.257599 
	C158.604736,483.344940 158.616623,483.332916 153.707993,478.427734 
	C143.575577,468.302490 133.511932,458.106079 123.236511,448.127869 
	C120.263702,445.240967 119.653214,443.355255 123.008347,440.127167 
	C133.928314,429.620697 144.597519,418.848877 155.187180,408.007233 
	C157.813278,405.318665 159.485550,405.395081 162.064316,408.030792 
	C172.780304,418.983521 183.617142,429.820587 194.557983,440.548828 
	C197.172470,443.112488 197.294022,444.793121 194.586685,447.424530 
	C184.674164,457.059143 174.979309,466.917725 164.954758,476.941315 
z"/>
<path fill="#000000" opacity="1.000000" stroke="none" 
	d="
M657.198120,331.802063 
	C666.708740,341.299408 666.694092,341.284973 657.298889,350.810028 
	C647.623474,360.619232 637.980530,370.460602 628.844055,379.758209 
	C625.783142,379.511963 624.922791,377.930725 623.783386,376.801819 
	C613.151123,366.267609 602.647827,355.600464 591.874329,345.213348 
	C588.847229,342.294830 588.940247,340.682220 591.966980,337.759308 
	C602.730347,327.365295 613.268555,316.730865 623.657288,305.961090 
	C626.493896,303.020477 628.286316,302.685059 631.243347,305.754761 
	C639.663818,314.496185 648.361633,322.970367 657.198120,331.802063 
z"/>
</svg>