<svg version="1.1" id="Layer_1" xmlns="http://www.w3.org/2000/svg" xmlns:xlink="http://www.w3.org/1999/xlink" x="0px" y="0px"
	 width="100%" viewBox="0 0 784 783" enable-background="new 0 0 784 783" xml:space="preserve">
<path fill="#000000" opacity="1.000000" stroke="none" 
	d="
M785.000000,387.000000 
	C785.000000,390.361298 785.000000,393.722565 784.645752,397.781677 
	C782.865417,416.403259 782.553955,434.505707 779.716003,452.203064 
	C776.556519,471.905518 772.006592,491.503723 766.430298,510.672638 
	C757.657410,540.829834 744.359253,569.164612 727.981201,595.993713 
	C713.245239,620.132629 696.526245,642.846558 676.465881,662.795593 
	C662.986511,676.200134 648.712219,688.865356 634.186890,701.143677 
	C614.105347,718.118652 591.583313,731.564758 568.127686,743.271606 
	C545.441895,754.594177 521.826965,763.754272 497.286346,770.336121 
	C476.478760,775.916809 455.433044,780.227783 433.918793,782.036560 
	C428.595154,782.484131 423.305359,783.334656 418.000000,784.000000 
	C401.645782,784.000000 385.291534,784.000000 368.232666,783.647888 
	C362.764435,782.865417 357.961761,782.688354 353.244354,781.959351 
	C335.893829,779.278259 318.352051,777.364990 301.283478,773.424744 
	C263.360779,764.670471 227.665131,750.025452 194.165909,730.082275 
	C159.875168,709.668030 129.158264,684.995483 102.528618,655.166199 
	C88.114861,639.020508 74.971191,622.020630 63.226429,603.846497 
	C46.429928,577.855103 32.632195,550.352661 23.155344,520.970276 
	C16.928329,501.663788 12.000034,481.821564 8.161180,461.897308 
	C4.873657,444.834564 3.143173,427.356567 2.241936,409.983459 
	C1.426858,394.271210 2.242538,378.428619 3.130958,362.688202 
	C3.844119,350.052917 5.024253,337.354950 7.268143,324.914032 
	C11.671852,300.498352 18.026442,276.541962 27.014858,253.347443 
	C35.425388,231.644150 44.996082,210.480453 57.634090,190.891830 
	C66.540939,177.086411 75.522659,163.247299 85.600800,150.302887 
	C95.431091,137.676819 106.209717,125.685570 117.479774,114.315392 
	C127.219986,104.488655 138.088593,95.750832 148.718719,86.842300 
	C166.693527,71.778625 186.376114,59.171478 206.976456,48.070297 
	C237.830643,31.443495 270.309998,18.911530 304.558990,11.277156 
	C328.207947,6.005619 352.067383,2.055990 376.411896,1.956954 
	C377.942535,1.950727 379.470703,1.333153 381.000000,0.999999 
	C389.020905,1.000000 397.041809,1.000000 405.770874,1.354117 
	C422.070404,3.134447 437.835968,3.560142 453.209412,6.237500 
	C472.884705,9.664052 492.481018,14.076049 511.682068,19.565044 
	C538.061157,27.106026 562.779236,38.917145 586.708740,52.313786 
	C616.085327,68.759911 642.679749,89.016609 666.698975,112.473587 
	C678.262939,123.766861 688.629700,136.329956 699.096008,148.692795 
	C714.143311,166.466736 726.712463,186.006104 737.699707,206.486465 
	C751.118713,231.499847 761.944336,257.609680 769.569275,285.033417 
	C778.342834,316.588379 783.953003,348.569305 784.042542,381.411194 
	C784.047607,383.274994 784.666687,385.137085 785.000000,387.000000 
M559.831177,336.668945 
	C538.888916,315.715820 517.946655,294.762695 497.544281,274.349762 
	C484.490601,287.388153 471.712128,300.151642 458.236542,313.611450 
	C484.448395,339.810974 511.007965,366.358032 538.266541,393.603790 
	C511.644012,420.215637 484.826202,447.022675 458.461426,473.376892 
	C470.911133,485.785583 483.600708,498.433380 496.053802,510.845520 
	C535.383118,471.513824 575.051147,431.843475 615.032471,391.859772 
	C597.031189,373.861908 578.681213,355.515411 559.831177,336.668945 
M256.829071,384.333160 
	C280.756439,360.425934 304.683838,336.518738 328.358337,312.864166 
	C315.431915,299.959717 302.638214,287.187714 290.575928,275.145935 
	C251.122482,314.599609 211.375092,354.347229 172.369904,393.352631 
	C211.281296,432.307404 250.662643,471.732697 289.620392,510.733887 
	C301.957977,498.398041 314.631165,485.726624 327.817810,472.541840 
	C301.482422,446.240204 274.912262,419.704102 247.824844,392.651398 
	C250.696518,390.011139 253.511902,387.422607 256.829071,384.333160 
M360.501984,543.118713 
	C391.656494,443.161194 422.810974,343.203674 454.084778,242.863449 
	C445.289246,240.119141 436.820282,237.476715 428.063782,234.744583 
	C395.992188,337.615265 364.057404,440.047211 332.057068,542.689331 
	C340.908966,545.447754 349.246643,548.045898 357.970184,550.764282 
	C358.788574,548.229431 359.492523,546.049133 360.501984,543.118713 
M183.332321,457.832520 
	C187.912628,453.294006 192.492935,448.755524 196.479385,444.805450 
	C183.391144,431.720123 170.716614,419.048431 158.820480,407.154938 
	C146.520279,419.453552 133.851105,432.121063 121.403511,444.567017 
	C133.554642,456.696747 146.155045,469.274994 159.062653,482.159851 
	C166.859711,474.343933 174.846054,466.338257 183.332321,457.832520 
M592.987427,337.624481 
	C591.487122,338.624603 589.986877,339.624695 589.087769,340.224091 
	C602.697632,353.820251 615.362305,366.472076 627.427185,378.524780 
	C639.770325,366.183838 652.416809,353.539612 664.926697,341.032013 
	C652.669067,328.754303 640.085205,316.149841 627.126709,303.170166 
	C615.963623,314.426239 604.724792,325.758606 592.987427,337.624481 
z"/>
<path fill="#4C6971" opacity="1.000000" stroke="none" 
	d="
M380.531342,0.999999 
	C379.470703,1.333153 377.942535,1.950727 376.411896,1.956954 
	C352.067383,2.055990 328.207947,6.005619 304.558990,11.277156 
	C270.309998,18.911530 237.830643,31.443495 206.976456,48.070297 
	C186.376114,59.171478 166.693527,71.778625 148.718719,86.842300 
	C138.088593,95.750832 127.219986,104.488655 117.479774,114.315392 
	C106.209717,125.685570 95.431091,137.676819 85.600800,150.302887 
	C75.522659,163.247299 66.540939,177.086411 57.634090,190.891830 
	C44.996082,210.480453 35.425388,231.644150 27.014858,253.347443 
	C18.026442,276.541962 11.671852,300.498352 7.268143,324.914032 
	C5.024253,337.354950 3.844119,350.052917 3.130958,362.688202 
	C2.242538,378.428619 1.426858,394.271210 2.241936,409.983459 
	C3.143173,427.356567 4.873657,444.834564 8.161180,461.897308 
	C12.000034,481.821564 16.928329,501.663788 23.155344,520.970276 
	C32.632195,550.352661 46.429928,577.855103 63.226429,603.846497 
	C74.971191,622.020630 88.114861,639.020508 102.528618,655.166199 
	C129.158264,684.995483 159.875168,709.668030 194.165909,730.082275 
	C227.665131,750.025452 263.360779,764.670471 301.283478,773.424744 
	C318.352051,777.364990 335.893829,779.278259 353.244354,781.959351 
	C357.961761,782.688354 362.764435,782.865417 367.763977,783.647888 
	C245.701630,784.000000 123.403244,784.000000 1.052434,784.000000 
	C1.052434,523.109558 1.052434,262.219086 1.052434,1.000000 
	C127.354034,1.000000 253.708359,1.000000 380.531342,0.999999 
z"/>
<path fill="#4C6971" opacity="1.000000" stroke="none" 
	d="
M785.000000,386.531342 
	C784.666687,385.137085 784.047607,383.274994 784.042542,381.411194 
	C783.953003,348.569305 778.342834,316.588379 769.569275,285.033417 
	C761.944336,257.609680 751.118713,231.499847 737.699707,206.486465 
	C726.712463,186.006104 714.143311,166.466736 699.096008,148.692795 
	C688.629700,136.329956 678.262939,123.766861 666.698975,112.473587 
	C642.679749,89.016609 616.085327,68.759911 586.708740,52.313786 
	C562.779236,38.917145 538.061157,27.106026 511.682068,19.565044 
	C492.481018,14.076049 472.884705,9.664052 453.209412,6.237500 
	C437.835968,3.560142 422.070404,3.134447 406.239532,1.354117 
	C532.261047,1.000000 658.522156,1.000000 785.000000,1.000000 
	C785.000000,129.354141 785.000000,257.708405 785.000000,386.531342 
z"/>
<path fill="#4C6971" opacity="1.000000" stroke="none" 
	d="
M418.468658,784.000000 
	C423.305359,783.334656 428.595154,782.484131 433.918793,782.036560 
	C455.433044,780.227783 476.478760,775.916809 497.286346,770.336121 
	C521.826965,763.754272 545.441895,754.594177 568.127686,743.271606 
	C591.583313,731.564758 614.105347,718.118652 634.186890,701.143677 
	C648.712219,688.865356 662.986511,676.200134 676.465881,662.795593 
	C696.526245,642.846558 713.245239,620.132629 727.981201,595.993713 
	C744.359253,569.164612 757.657410,540.829834 766.430298,510.672638 
	C772.006592,491.503723 776.556519,471.905518 779.716003,452.203064 
	C782.553955,434.505707 782.865417,416.403259 784.645752,398.239746 
	C785.000000,526.591919 785.000000,655.183777 785.000000,784.000000 
	C662.979187,784.000000 540.958252,784.000000 418.468658,784.000000 
z"/>
<path fill="#FDFDFD" opacity="1.000000" stroke="none" 
	d="
M560.081238,336.918945 
	C578.681213,355.515411 597.031189,373.861908 615.032471,391.859772 
	C575.051147,431.843475 535.383118,471.513824 496.053802,510.845520 
	C483.600708,498.433380 470.911133,485.785583 458.461426,473.376892 
	C484.826202,447.022675 511.644012,420.215637 538.266541,393.603790 
	C511.007965,366.358032 484.448395,339.810974 458.236542,313.611450 
	C471.712128,300.151642 484.490601,287.388153 497.544281,274.349762 
	C517.946655,294.762695 538.888916,315.715820 560.081238,336.918945 
z"/>
<path fill="#FDFDFD" opacity="1.000000" stroke="none" 
	d="
M256.578186,384.583618 
	C253.511902,387.422607 250.696518,390.011139 247.824844,392.651398 
	C274.912262,419.704102 301.482422,446.240204 327.817810,472.541840 
	C314.631165,485.726624 301.957977,498.398041 289.620392,510.733887 
	C250.662643,471.732697 211.281296,432.307404 172.369904,393.352631 
	C211.375092,354.347229 251.122482,314.599609 290.575928,275.145935 
	C302.638214,287.187714 315.431915,299.959717 328.358337,312.864166 
	C304.683838,336.518738 280.756439,360.425934 256.578186,384.583618 
z"/>
<path fill="#FDFDFD" opacity="1.000000" stroke="none" 
	d="
M360.349213,543.493774 
	C359.492523,546.049133 358.788574,548.229431 357.970184,550.764282 
	C349.246643,548.045898 340.908966,545.447754 332.057068,542.689331 
	C364.057404,440.047211 395.992188,337.615265 428.063782,234.744583 
	C436.820282,237.476715 445.289246,240.119141 454.084778,242.863449 
	C422.810974,343.203674 391.656494,443.161194 360.349213,543.493774 
z"/>
<path fill="#FDFDFD" opacity="1.000000" stroke="none" 
	d="
M183.082367,458.082520 
	C174.846054,466.338257 166.859711,474.343933 159.062653,482.159851 
	C146.155045,469.274994 133.554642,456.696747 121.403511,444.567017 
	C133.851105,432.121063 146.520279,419.453552 158.820480,407.154938 
	C170.716614,419.048431 183.391144,431.720123 196.479385,444.805450 
	C192.492935,448.755524 187.912628,453.294006 183.082367,458.082520 
z"/>
<path fill="#FDFDFD" opacity="1.000000" stroke="none" 
	d="
M593.236694,337.357727 
	C604.724792,325.758606 615.963623,314.426239 627.126709,303.170166 
	C640.085205,316.149841 652.669067,328.754303 664.926697,341.032013 
	C652.416809,353.539612 639.770325,366.183838 627.427185,378.524780 
	C615.362305,366.472076 602.697632,353.820251 589.087769,340.224091 
	C589.986877,339.624695 591.487122,338.624603 593.236694,337.357727 
z"/>
</svg>